<svg xmlns="http://www.w3.org/2000/svg" xmlns:xlink="http://www.w3.org/1999/xlink" width="1024" zoomAndPan="magnify" viewBox="0 0 768 767.999994" height="1024" preserveAspectRatio="xMidYMid meet" version="1.0"><defs><filter x="0%" y="0%" width="100%" height="100%" id="cc90e0a19b"><feColorMatrix values="0 0 0 0 1 0 0 0 0 1 0 0 0 0 1 0 0 0 1 0" color-interpolation-filters="sRGB"/></filter><mask id="616fc6d57e"><g filter="url(#cc90e0a19b)"><rect x="-76.8" width="921.6" fill="#000000" y="-76.799999" height="921.599993" fill-opacity="0.57"/></g></mask><clipPath id="d2d4356fc1"><path d="M 7 0.238281 L 621 0.238281 L 621 14.640625 L 7 14.640625 Z M 7 0.238281 " clip-rule="nonzero"/></clipPath><clipPath id="00b2c414a0"><rect x="0" width="630" y="0" height="15"/></clipPath><mask id="ff6bac7519"><g filter="url(#cc90e0a19b)"><rect x="-76.8" width="921.6" fill="#000000" y="-76.799999" height="921.599993" fill-opacity="0.57"/></g></mask><clipPath id="9fe6e75b1d"><path d="M 7 0.359375 L 621 0.359375 L 621 15 L 7 15 Z M 7 0.359375 " clip-rule="nonzero"/></clipPath><clipPath id="1c2ab584dc"><rect x="0" width="630" y="0" height="15"/></clipPath></defs><rect x="-76.8" width="921.6" fill="#ffffff" y="-76.799999" height="921.599993" fill-opacity="1"/><rect x="-76.8" width="921.6" fill="#1a1a2e" y="-76.799999" height="921.599993" fill-opacity="1"/><g mask="url(#616fc6d57e)"><g transform="matrix(1, 0, 0, 1, 69, 192)"><g clip-path="url(#00b2c414a0)"><g clip-path="url(#d2d4356fc1)"><path fill="#e8e8e8" d="M 7.800781 0.375 L 50.550781 0.375 L 50.550781 14.625 L 7.800781 14.625 M 64.800781 0.375 L 107.550781 0.375 L 107.550781 14.625 L 64.800781 14.625 M 121.800781 0.375 L 164.550781 0.375 L 164.550781 14.625 L 121.800781 14.625 M 178.800781 0.375 L 221.550781 0.375 L 221.550781 14.625 L 178.800781 14.625 M 235.800781 0.375 L 278.550781 0.375 L 278.550781 14.625 L 235.800781 14.625 M 292.800781 0.375 L 335.550781 0.375 L 335.550781 14.625 L 292.800781 14.625 M 349.800781 0.375 L 392.550781 0.375 L 392.550781 14.625 L 349.800781 14.625 M 406.800781 0.375 L 449.550781 0.375 L 449.550781 14.625 L 406.800781 14.625 M 463.800781 0.375 L 506.550781 0.375 L 506.550781 14.625 L 463.800781 14.625 M 520.800781 0.375 L 563.550781 0.375 L 563.550781 14.625 L 520.800781 14.625 M 577.800781 0.375 L 620.550781 0.375 L 620.550781 14.625 L 577.800781 14.625 " fill-opacity="1" fill-rule="nonzero"/></g></g></g></g><g mask="url(#ff6bac7519)"><g transform="matrix(1, 0, 0, 1, 69, 561)"><g clip-path="url(#1c2ab584dc)"><g clip-path="url(#9fe6e75b1d)"><path fill="#e8e8e8" d="M 7.800781 0.597656 L 50.550781 0.597656 L 50.550781 14.847656 L 7.800781 14.847656 M 64.800781 0.597656 L 107.550781 0.597656 L 107.550781 14.847656 L 64.800781 14.847656 M 121.800781 0.597656 L 164.550781 0.597656 L 164.550781 14.847656 L 121.800781 14.847656 M 178.800781 0.597656 L 221.550781 0.597656 L 221.550781 14.847656 L 178.800781 14.847656 M 235.800781 0.597656 L 278.550781 0.597656 L 278.550781 14.847656 L 235.800781 14.847656 M 292.800781 0.597656 L 335.550781 0.597656 L 335.550781 14.847656 L 292.800781 14.847656 M 349.800781 0.597656 L 392.550781 0.597656 L 392.550781 14.847656 L 349.800781 14.847656 M 406.800781 0.597656 L 449.550781 0.597656 L 449.550781 14.847656 L 406.800781 14.847656 M 463.800781 0.597656 L 506.550781 0.597656 L 506.550781 14.847656 L 463.800781 14.847656 M 520.800781 0.597656 L 563.550781 0.597656 L 563.550781 14.847656 L 520.800781 14.847656 M 577.800781 0.597656 L 620.550781 0.597656 L 620.550781 14.847656 L 577.800781 14.847656 " fill-opacity="1" fill-rule="nonzero"/></g></g></g></g><path fill="#e8e8e8" d="M 555.210938 148.699219 C 488.617188 163.316406 331.355469 198.3125 325.007812 199.789062 C 316.886719 201.710938 299.460938 203.335938 299.460938 225.484375 L 299.460938 519.921875 C 281.152344 509.585938 253.242188 508.257812 225.335938 518.296875 C 183.988281 533.210938 158.445312 567.320312 168.335938 594.636719 C 178.230469 621.957031 219.722656 631.996094 260.921875 617.082031 C 299.3125 603.203125 324.121094 572.785156 319.542969 546.648438 L 319.542969 323.972656 C 319.542969 311.71875 319.246094 295.917969 351.144531 289.125 C 365.761719 286.023438 564.660156 241.726562 564.660156 241.726562 L 564.660156 447.566406 C 546.351562 436.933594 518.148438 435.457031 489.945312 445.648438 C 448.597656 460.5625 423.054688 494.671875 432.949219 521.988281 C 442.839844 549.304688 484.332031 559.347656 525.53125 544.433594 C 563.628906 530.699219 588.140625 500.726562 584.300781 474.738281 L 584.742188 474.738281 L 584.742188 191.375 C 584.742188 156.230469 609.550781 155.34375 609.550781 155.34375 L 609.550781 136 Z M 555.210938 148.699219 " fill-opacity="1" fill-rule="nonzero"/></svg>