<svg xmlns="http://www.w3.org/2000/svg" xmlns:xlink="http://www.w3.org/1999/xlink" width="1024" zoomAndPan="magnify" viewBox="0 0 768 767.999994" height="1024" preserveAspectRatio="xMidYMid meet" version="1.0"><defs><filter x="0%" y="0%" width="100%" height="100%" id="1f829857cd"><feColorMatrix values="0 0 0 0 1 0 0 0 0 1 0 0 0 0 1 0 0 0 1 0" color-interpolation-filters="sRGB"/></filter><mask id="f501d37215"><g filter="url(#1f829857cd)"><rect x="-76.8" width="921.6" fill="#000000" y="-76.799999" height="921.599993" fill-opacity="0.57"/></g></mask><clipPath id="ad8635feb1"><path d="M 10 0.601562 L 616 0.601562 L 616 20.28125 L 10 20.28125 Z M 10 0.601562 " clip-rule="nonzero"/></clipPath><clipPath id="e6b5a14229"><rect x="0" width="636" y="0" height="21"/></clipPath><mask id="15a9b0479d"><g filter="url(#1f829857cd)"><rect x="-76.8" width="921.6" fill="#000000" y="-76.799999" height="921.599993" fill-opacity="0.57"/></g></mask><clipPath id="7b70e63d37"><path d="M 10 0.960938 L 616 0.960938 L 616 20.640625 L 10 20.640625 Z M 10 0.960938 " clip-rule="nonzero"/></clipPath><clipPath id="63d4dc96f0"><rect x="0" width="636" y="0" height="21"/></clipPath></defs><rect x="-76.8" width="921.6" fill="#ffffff" y="-76.799999" height="921.599993" fill-opacity="1"/><rect x="-76.8" width="921.6" fill="#343482" y="-76.799999" height="921.599993" fill-opacity="1"/><g mask="url(#f501d37215)"><g transform="matrix(1, 0, 0, 1, 66, 189)"><g clip-path="url(#e6b5a14229)"><g clip-path="url(#ad8635feb1)"><path fill="#e8e8e8" d="M 10.800781 0.75 L 69.300781 0.75 L 69.300781 20.25 L 10.800781 20.25 M 88.800781 0.75 L 147.300781 0.75 L 147.300781 20.25 L 88.800781 20.25 M 166.800781 0.75 L 225.300781 0.75 L 225.300781 20.25 L 166.800781 20.25 M 244.800781 0.75 L 303.300781 0.75 L 303.300781 20.25 L 244.800781 20.25 M 322.800781 0.75 L 381.300781 0.75 L 381.300781 20.25 L 322.800781 20.25 M 400.800781 0.75 L 459.300781 0.75 L 459.300781 20.25 L 400.800781 20.25 M 478.800781 0.75 L 537.300781 0.75 L 537.300781 20.25 L 478.800781 20.25 M 556.800781 0.75 L 615.300781 0.75 L 615.300781 20.25 L 556.800781 20.25 " fill-opacity="1" fill-rule="nonzero"/></g></g></g></g><g mask="url(#15a9b0479d)"><g transform="matrix(1, 0, 0, 1, 66, 558)"><g clip-path="url(#63d4dc96f0)"><g clip-path="url(#7b70e63d37)"><path fill="#e8e8e8" d="M 10.800781 0.972656 L 69.300781 0.972656 L 69.300781 20.472656 L 10.800781 20.472656 M 88.800781 0.972656 L 147.300781 0.972656 L 147.300781 20.472656 L 88.800781 20.472656 M 166.800781 0.972656 L 225.300781 0.972656 L 225.300781 20.472656 L 166.800781 20.472656 M 244.800781 0.972656 L 303.300781 0.972656 L 303.300781 20.472656 L 244.800781 20.472656 M 322.800781 0.972656 L 381.300781 0.972656 L 381.300781 20.472656 L 322.800781 20.472656 M 400.800781 0.972656 L 459.300781 0.972656 L 459.300781 20.472656 L 400.800781 20.472656 M 478.800781 0.972656 L 537.300781 0.972656 L 537.300781 20.472656 L 478.800781 20.472656 M 556.800781 0.972656 L 615.300781 0.972656 L 615.300781 20.472656 L 556.800781 20.472656 " fill-opacity="1" fill-rule="nonzero"/></g></g></g></g><path fill="#e8e8e8" d="M 555.210938 148.699219 C 488.617188 163.316406 331.355469 198.3125 325.007812 199.789062 C 316.886719 201.710938 299.460938 203.335938 299.460938 225.484375 L 299.460938 519.921875 C 281.152344 509.585938 253.242188 508.257812 225.335938 518.296875 C 183.988281 533.210938 158.445312 567.320312 168.335938 594.636719 C 178.230469 621.957031 219.722656 631.996094 260.921875 617.082031 C 299.3125 603.203125 324.121094 572.785156 319.542969 546.648438 L 319.542969 323.972656 C 319.542969 311.71875 319.246094 295.917969 351.144531 289.125 C 365.761719 286.023438 564.660156 241.726562 564.660156 241.726562 L 564.660156 447.566406 C 546.351562 436.933594 518.148438 435.457031 489.945312 445.648438 C 448.597656 460.5625 423.054688 494.671875 432.949219 521.988281 C 442.839844 549.304688 484.332031 559.347656 525.53125 544.433594 C 563.628906 530.699219 588.140625 500.726562 584.300781 474.738281 L 584.742188 474.738281 L 584.742188 191.375 C 584.742188 156.230469 609.550781 155.34375 609.550781 155.34375 L 609.550781 136 Z M 555.210938 148.699219 " fill-opacity="1" fill-rule="nonzero"/></svg>